<?xml version="1.0" encoding="UTF-8"?>
<svg version="1.1" xmlns="http://www.w3.org/2000/svg" width="512" height="512">
<path d="M0 0 C0.62962646 0.38115967 1.25925293 0.76231934 1.90795898 1.1550293 C3.58791182 2.18338068 5.24980693 3.24106987 6.91015625 4.30078125 C9.8097451 5.78810031 9.8097451 5.78810031 12.7109375 4.94140625 C13.76023437 4.46703125 14.80953125 3.99265625 15.890625 3.50390625 C17.29657572 2.92189771 18.70428398 2.34412509 20.11328125 1.76953125 C21.27537109 1.28371582 21.27537109 1.28371582 22.4609375 0.78808594 C45.31403025 -8.69523116 69.27265383 -14.24527277 93.890625 -16.49609375 C95.08429688 -16.60824219 96.27796875 -16.72039063 97.5078125 -16.8359375 C152.65053505 -21.24011556 214.934495 -11.21029785 258.359375 25.2890625 C272.19315539 37.39362034 283.79047414 53.49273384 285.17407227 72.3714447 C285.32308349 76.90482969 285.30847372 81.43741819 285.2890625 85.97265625 C285.29108989 87.66019821 285.29400682 89.34773931 285.29776001 91.03527832 C285.30216179 94.56201569 285.29582853 98.08852386 285.28173828 101.61523438 C285.2647535 106.07818915 285.27443291 110.54059816 285.29245567 115.00353241 C285.30344291 118.48884987 285.29977815 121.97404409 285.2920723 125.45936584 C285.29010567 127.10156828 285.2924011 128.74378285 285.29951096 130.38597107 C285.3442064 143.62053954 284.2123799 156.64504437 280.890625 169.50390625 C281.45394531 169.77074219 282.01726562 170.03757813 282.59765625 170.3125 C302.4761037 180.6411652 320.26636893 201.54444946 327.890625 222.50390625 C328.28121094 223.54933594 328.67179687 224.59476563 329.07421875 225.671875 C335.12659294 244.5410416 333.51469164 265.49007985 324.74584961 283.13085938 C321.11174002 290.12707119 317.12937983 296.58331782 311.890625 302.50390625 C311.20355469 303.30957031 310.51648438 304.11523438 309.80859375 304.9453125 C269.4071438 351.29023319 202.91395719 367.36614065 143.98828125 371.79736328 C73.90449974 376.23588322 -5.53046129 363.11752913 -59.80371094 315.47705078 C-74.0978374 302.52704436 -84.67316502 287.09665802 -90.109375 268.50390625 C-90.35429688 267.70210938 -90.59921875 266.9003125 -90.8515625 266.07421875 C-96.0332218 245.56052644 -90.43807905 225.27286288 -80.109375 207.50390625 C-75.59227308 200.1159351 -70.0402324 193.78677497 -64.109375 187.50390625 C-63.55765625 186.89933594 -63.0059375 186.29476562 -62.4375 185.671875 C-58.24532022 181.24103152 -53.51049908 177.61232847 -48.63964844 173.96679688 C-44.6136111 171.02099381 -44.6136111 171.02099381 -41.109375 167.50390625 C-41.109375 166.84390625 -41.109375 166.18390625 -41.109375 165.50390625 C-41.82996094 165.25511719 -42.55054687 165.00632813 -43.29296875 164.75 C-69.46309133 153.17126338 -90.56177396 119.94507879 -100.7734375 94.52734375 C-102.06863764 90.88012372 -103.13279763 87.24873442 -104.109375 83.50390625 C-104.30112305 82.82231445 -104.49287109 82.14072266 -104.69042969 81.43847656 C-111.19221504 57.79658495 -111.8339008 27.11597727 -99.86328125 5.21484375 C-91.94286374 -7.02740515 -81.28830734 -15.07679683 -67.109375 -18.49609375 C-43.17123621 -23.43628628 -19.83477074 -12.181031 0 0 Z M-57.109375 31.50390625 C-62.46751236 49.3643641 -57.84227546 70.01975955 -49.67578125 86.375 C-48.53239121 88.45124083 -47.360614 90.491275 -46.109375 92.50390625 C-45.779375 92.50390625 -45.449375 92.50390625 -45.109375 92.50390625 C-45.1000293 91.91601318 -45.09068359 91.32812012 -45.08105469 90.72241211 C-44.7074485 71.94137573 -42.14398136 57.55468393 -32.109375 41.50390625 C-31.779375 40.84390625 -31.449375 40.18390625 -31.109375 39.50390625 C-43.63996108 31.79627644 -43.63996108 31.79627644 -57.109375 31.50390625 Z " fill="#8A260B" transform="translate(144.109375,79.49609375)"/>
<path d="M0 0 C2.65990434 2.65990434 3.18445581 5.60356882 4.1875 9.125 C11.98769513 35.07091224 26.14557524 57.69617714 45 77 C45.60062256 77.6305127 46.20124512 78.26102539 46.82006836 78.91064453 C51.62698055 83.86864988 56.7255506 88.07590395 62.3125 92.125 C63.14700684 92.734646 63.98151367 93.34429199 64.84130859 93.97241211 C70.66728446 98.17302104 76.56708763 101.79976124 83 105 C84.4395264 105.85074713 85.87705097 106.70489111 87.3125 107.5625 C93.2437792 110.8356488 99.56740943 112.93997616 106 115 C106.76892578 115.24927246 107.53785156 115.49854492 108.33007812 115.75537109 C152.40087696 129.82627341 197.75070118 125.8236322 238.94848633 105.09594727 C279.97311229 83.72660379 306.30585759 45.85642388 320.1875 2.61328125 C320.455625 1.75089844 320.72375 0.88851562 321 0 C341.81698612 10.6397929 361.00139359 32.0114356 369 54 C369.39058594 55.04542969 369.78117187 56.09085937 370.18359375 57.16796875 C376.23596794 76.03713535 374.62406664 96.9861736 365.85522461 114.62695312 C362.22111502 121.62316494 358.23875483 128.07941157 353 134 C352.31292969 134.80566406 351.62585938 135.61132812 350.91796875 136.44140625 C310.5165188 182.78632694 244.02333219 198.8622344 185.09765625 203.29345703 C115.01387474 207.73197697 35.57891371 194.61362288 -18.69433594 146.97314453 C-32.9884624 134.02313811 -43.56379002 118.59275177 -49 100 C-49.24492188 99.19820313 -49.48984375 98.39640625 -49.7421875 97.5703125 C-54.9238468 77.05662019 -49.32870405 56.76895663 -39 39 C-34.48289808 31.61202885 -28.9308574 25.28286872 -23 19 C-22.44828125 18.39542969 -21.8965625 17.79085938 -21.328125 17.16796875 C-15.09331215 10.57820369 -7.53045964 5.02030643 0 0 Z " fill="#561404" transform="translate(103,248)"/>
<path d="M0 0 C1.42554987 0.19699417 2.85131357 0.3924509 4.27734375 0.5859375 C29.26128591 4.49205638 56.20823905 15.12767485 76 31 C76.9590625 31.76699219 77.918125 32.53398438 78.90625 33.32421875 C88.2292777 41.27696628 96.06390458 50.88860638 99 63 C99.33 63.99 99.66 64.98 100 66 C101.3994412 77.65534603 96.91253927 87.26564658 90.07421875 96.4921875 C63.21307817 128.96836877 18.5819696 140.90350349 -21.77648926 144.8175354 C-28.36199077 145.35795145 -34.95865118 145.39159413 -41.5625 145.375 C-42.35115448 145.37478851 -43.13980896 145.37457703 -43.95236206 145.37435913 C-67.2438293 145.31284253 -90.67678972 142.92219727 -113 136 C-113.72638672 135.77586426 -114.45277344 135.55172852 -115.20117188 135.32080078 C-135.96435883 128.7593744 -155.27426902 119.27400441 -171 104 C-171.64582031 103.41605469 -172.29164063 102.83210938 -172.95703125 102.23046875 C-181.3946436 94.38109953 -187.9397008 82.73539999 -188.5 71.0625 C-187.98427141 60.56492777 -183.45953965 52.04119648 -177 44 C-176.41476563 43.25105469 -175.82953125 42.50210938 -175.2265625 41.73046875 C-151.68376021 13.36983561 -108.21827171 0.86741107 -73.05517578 -2.70703125 C-48.84418781 -4.65345995 -23.96555575 -3.83038826 0 0 Z " fill="#F39721" transform="translate(308,87)"/>
<path d="M0 0 C-2.47338899 2.78152162 -5.18958305 4.33929268 -8.4375 6.125 C-20.53797606 13.07292111 -32.44059441 21.87277274 -41 33 C-44.69243477 32.41835983 -47.43160217 31.37611582 -50.6875 29.5625 C-56.12285123 26.74296248 -61.82814729 25 -68 25 C-70.3543278 42.36316752 -69.46268322 63.57303412 -59.78443909 78.92861938 C-56.02987707 84.89524351 -55.28642468 89.5609986 -55.36328125 96.52734375 C-55.34771431 98.00902794 -55.34771431 98.00902794 -55.33183289 99.52064514 C-55.30235108 102.65995525 -55.30548102 105.79807804 -55.3125 108.9375 C-55.3005845 113.05092447 -55.27445037 117.16406338 -55.23828125 121.27734375 C-55.23031525 122.27704193 -55.22234924 123.27674011 -55.21414185 124.30673218 C-55.09386427 133.30045365 -54.20523557 142.09517849 -53 151 C-52.6620082 153.66610133 -52.33129858 156.33305572 -52 159 C-76.59613942 150.50795187 -96.60374199 119.06990893 -107.5859375 97.1015625 C-110.74893447 90.55050451 -113.15977902 84.05659542 -115 77 C-115.19174805 76.3184082 -115.38349609 75.63681641 -115.58105469 74.93457031 C-122.08284004 51.2926787 -122.7245258 20.61207102 -110.75390625 -1.2890625 C-102.83348874 -13.5313114 -92.17893234 -21.58070308 -78 -25 C-49.54664422 -30.87201273 -23.09167339 -14.28991448 0 0 Z " fill="#E2501F" transform="translate(155,86)"/>
<path d="M0 0 C0.99 0.99 0.99 0.99 2 2 C1.54443161 5.86833508 -0.55884137 8.50151789 -2.74609375 11.609375 C-7.21471428 20.12898797 -6.35380959 29.8582667 -6.38085938 39.21411133 C-6.43745526 50.88842699 -7.45958207 62.57447758 -15 72 C-15.66 72.845625 -16.32 73.69125 -17 74.5625 C-17.66 75.366875 -18.32 76.17125 -19 77 C-19.7425 77.928125 -20.485 78.85625 -21.25 79.8125 C-22.11625 80.8953125 -22.11625 80.8953125 -23 82 C-21.9584375 81.67386719 -20.916875 81.34773438 -19.84375 81.01171875 C-9.98240041 77.98183127 -0.20787627 75.54499628 10 74 C11.05066147 73.83742706 12.10132294 73.67485413 13.18382263 73.50735474 C22.13008908 72.21030975 30.84926162 71.70663368 39.90234375 71.69140625 C41.27748135 71.68025153 42.65260929 71.66784712 44.02772522 71.65428162 C49.77612918 71.59984608 55.52459193 71.56832947 61.27319336 71.54370117 C83.3044385 71.50011745 83.3044385 71.50011745 105 68 C114.35207686 66.56805124 114.35207686 66.56805124 118 69 C116.7980688 76.83946172 108.37628668 82.94252289 102.5 87.5625 C88.70809072 97.40641003 74.44202748 103.08945486 58 107 C56.92649292 107.2925769 56.92649292 107.2925769 55.83129883 107.59106445 C47.74137869 109.57110254 39.47587405 109.33641286 31.19946289 109.31567383 C28.59933279 109.31254433 26.00037823 109.33592269 23.40039062 109.36132812 C7.62474412 109.42182459 -7.41946791 107.08598249 -22.75 103.4375 C-23.65492188 103.22931641 -24.55984375 103.02113281 -25.4921875 102.80664062 C-29.29733009 101.92191724 -33.05036656 100.9852472 -36.80078125 99.88671875 C-39.73392949 99.07374604 -42.41192347 98.62367752 -45.4375 98.375 C-46.30246094 98.30023438 -47.16742188 98.22546875 -48.05859375 98.1484375 C-49.01958984 98.07496094 -49.01958984 98.07496094 -50 98 C-50.1959375 97.46632813 -50.391875 96.93265625 -50.59375 96.3828125 C-52.43981201 91.7835718 -54.50753536 88.1969718 -57.75 84.4375 C-61.34072346 80.14614757 -63.94296358 75.72599757 -66.4375 70.75 C-66.77942383 70.07638428 -67.12134766 69.40276855 -67.47363281 68.70874023 C-71.59642207 60.22934126 -72.9432124 49.86548983 -69.94140625 40.8046875 C-60.07138459 19.88773103 -39.26980446 10.68349053 -18.62109375 3.2265625 C-12.12700319 1.02683819 -6.83227248 -0.46320491 0 0 Z " fill="#FEE9E3" transform="translate(238,101)"/>
<path d="M0 0 C0.71220703 -0.00773437 1.42441406 -0.01546875 2.15820312 -0.0234375 C12.01816744 0.01238435 19.79815741 2.8429831 27.0625 9.5625 C29.22293027 13.43327091 28.9830053 15.83469438 28.5625 20.25 C27.5625 22.75 27.5625 22.75 26.5625 24.25 C27.13669678 24.08991455 27.71089355 23.9298291 28.30249023 23.76489258 C38.59727863 21.41945575 51.28524903 22.20689326 60.5625 27.25 C63.83878173 29.45647545 65.3741704 30.96750559 67.5625 34.25 C68.00357575 38.73427012 68.00230848 41.25043527 66.1875 45.375 C55.604353 56.96606576 37.31992206 60.53494815 22.2797699 61.449646 C18.92257967 61.53996734 15.56929245 61.57827466 12.2109375 61.59375 C10.99024567 61.6083728 9.76955383 61.62299561 8.51187134 61.63806152 C3.35176474 61.69962251 -1.80845255 61.73981086 -6.96875 61.78173828 C-10.76314163 61.81568508 -14.55729486 61.86072669 -18.3515625 61.90625 C-19.50081207 61.9115271 -20.65006165 61.9168042 -21.83413696 61.92224121 C-28.89860603 62.00851729 -35.53362943 62.7408981 -42.4375 64.25 C-41.98455566 63.45419022 -41.98455566 63.45419022 -41.52246094 62.64230347 C-37.5215297 55.35341973 -37.90147073 47.7590047 -37.9375 39.6875 C-37.98206279 29.67846377 -38.00268749 22.17078902 -31.6484375 13.9296875 C-22.46390771 4.90149014 -13.01214456 -0.14054522 0 0 Z " fill="#FEE9E4" transform="translate(293.4375,97.75)"/>
</svg>
